#tb 0: 1/22050
0,          0,          0,      512,     1024, 0x00000000
0,        507,        507,      512,     1024, 0x00000000
0,       1014,       1014,      512,     1024, 0xd89a448e
0,       1521,       1521,      512,     1024, 0x695b369c
0,       2029,       2029,      512,     1024, 0xc8ba5707
0,       2558,       2558,      512,     1024, 0xdf241fc6
0,       3065,       3065,      512,     1024, 0x61cf4166
0,       3572,       3572,      512,     1024, 0x97cbc386
0,       4079,       4079,      512,     1024, 0x44899d04
0,       4586,       4586,      512,     1024, 0xa7cbaa62
0,       5116,       5116,      512,     1024, 0xa7aea60c
0,       5623,       5623,      512,     1024, 0xd7b18a89
0,       6130,       6130,      512,     1024, 0x268e81f6
0,       6637,       6637,      512,     1024, 0x9cf83a2f
0,       7166,       7166,      512,     1024, 0x5559b508
0,       7673,       7673,      512,     1024, 0xe1b9e71c
0,       8181,       8181,      512,     1024, 0xdcee733e
0,       8688,       8688,      512,     1024, 0xe5918f60
0,       9195,       9195,      512,     1024, 0x29dbd209
0,       9724,       9724,      512,     1024, 0x9bcbcf16
0,      10231,      10231,      512,     1024, 0x86f5f458
0,      10738,      10738,      512,     1024, 0xabcbda86
0,      11246,      11246,      512,     1024, 0xc51f77b9
0,      11775,      11775,      512,     1024, 0xf6b3a504
0,      12282,      12282,      512,     1024, 0x1af3e40e
0,      12789,      12789,      512,     1024, 0x3866b03b
0,      13296,      13296,      512,     1024, 0xbc005403
0,      13803,      13803,      512,     1024, 0xe9dfcc51
0,      14333,      14333,      512,     1024, 0x83c837cb
0,      14840,      14840,      512,     1024, 0xfa649580
0,      15347,      15347,      512,     1024, 0x519452ea
0,      15854,      15854,      512,     1024, 0xd4978774
0,      16383,      16383,      512,     1024, 0xe2a3b1cd
0,      16890,      16890,      512,     1024, 0x9a9472ad
0,      17397,      17397,      512,     1024, 0xa12d4060
0,      17905,      17905,      512,     1024, 0x31fb0646
0,      18412,      18412,      512,     1024, 0xfc44343f
0,      18941,      18941,      512,     1024, 0x0847751a
0,      19448,      19448,      512,     1024, 0x227968a2
0,      19955,      19955,      512,     1024, 0x7cce9f1c
0,      20462,      20462,      512,     1024, 0xb8356713
0,      20992,      20992,      512,     1024, 0xb29f6e6f
0,      21499,      21499,      512,     1024, 0x9e1430ab
0,      22006,      22006,      512,     1024, 0x26d85423
0,      22513,      22513,      512,     1024, 0x6496547d
0,      23020,      23020,      512,     1024, 0x316b1a86
0,      23549,      23549,      512,     1024, 0x3cd83afc
0,      24057,      24057,      512,     1024, 0x993ff633
0,      24564,      24564,      512,     1024, 0x0708d1a2
0,      25071,      25071,      512,     1024, 0xd7230db9
0,      25578,      25578,      512,     1024, 0xbb0779ca
0,      26107,      26107,      512,     1024, 0xc6094e1b
0,      26614,      26614,      512,     1024, 0x15a8b039
0,      27122,      27122,      512,     1024, 0xd6dbe88c
0,      27629,      27629,      512,     1024, 0x7e8d1140
0,      28158,      28158,      512,     1024, 0xef88e525
0,      28665,      28665,      512,     1024, 0x44e21149
0,      29172,      29172,      512,     1024, 0x65b0f5f4
0,      29679,      29679,      512,     1024, 0xb955f687
0,      30186,      30186,      512,     1024, 0xc85fba9c
0,      30716,      30716,      512,     1024, 0xf59655ad
0,      31223,      31223,      512,     1024, 0x6de80bf1
0,      31730,      31730,      512,     1024, 0x2dcf6e41
0,      32237,      32237,      512,     1024, 0xd0ddcf8a
0,      32766,      32766,      512,     1024, 0x00135c2d
0,      33273,      33273,      512,     1024, 0x697f8efd
0,      33781,      33781,      512,     1024, 0x7a9bada5
0,      34288,      34288,      512,     1024, 0x0d22783c
0,      34795,      34795,      512,     1024, 0x7726d07d
0,      35324,      35324,      512,     1024, 0xa2f14f67
0,      35831,      35831,      512,     1024, 0x7f51060d
0,      36338,      36338,      512,     1024, 0xc4ec6aea
0,      36846,      36846,      512,     1024, 0x9bb37ca4
0,      37375,      37375,      512,     1024, 0x9b085577
0,      37882,      37882,      512,     1024, 0x8812f8af
0,      38389,      38389,      512,     1024, 0x788f5221
0,      38896,      38896,      512,     1024, 0x3a2ce642
0,      39403,      39403,      512,     1024, 0x72415692
0,      39933,      39933,      512,     1024, 0xe3dcc105
0,      40440,      40440,      512,     1024, 0xb26c0599
0,      40947,      40947,      512,     1024, 0x5c9e55eb
0,      41454,      41454,      512,     1024, 0x8fe88707
0,      41983,      41983,      512,     1024, 0xc5d7beb6
0,      42490,      42490,      512,     1024, 0xe1d3a3b4
0,      42998,      42998,      512,     1024, 0x012da0c6
0,      43505,      43505,      512,     1024, 0x8d010922
0,      44012,      44012,      512,     1024, 0x3366eb0d
0,      44541,      44541,      512,     1024, 0xc9381a27
0,      45048,      45048,      512,     1024, 0x0774f685
0,      45555,      45555,      512,     1024, 0xc5cae0a5
0,      46062,      46062,      512,     1024, 0xa6f4737c
0,      46592,      46592,      512,     1024, 0x8fb6d0d1
0,      47099,      47099,      512,     1024, 0x05f579c2
0,      47606,      47606,      512,     1024, 0x56905d99
0,      48113,      48113,      512,     1024, 0x002ee18d
0,      48620,      48620,      512,     1024, 0xeb37ef51
0,      49149,      49149,      512,     1024, 0x38025635
0,      49657,      49657,      512,     1024, 0x4fe643c8
0,      50164,      50164,      512,     1024, 0x11d66ab1
0,      50671,      50671,      512,     1024, 0xcc3051e9
0,      51178,      51178,      512,     1024, 0xcd93e854
0,      51707,      51707,      512,     1024, 0x38f1196d
0,      52214,      52214,      512,     1024, 0x657a15fc
0,      52722,      52722,      512,     1024, 0x669ce2a9
0,      53229,      53229,      512,     1024, 0x95862dda
0,      53758,      53758,      512,     1024, 0x1726a7b2
0,      54265,      54265,      512,     1024, 0xd6ece2a1
0,      54772,      54772,      512,     1024, 0x33ab9553
0,      55279,      55279,      512,     1024, 0xd50c73a6
0,      55787,      55787,      512,     1024, 0xfe25b63a
0,      56316,      56316,      512,     1024, 0x7e2959e3
0,      56823,      56823,      512,     1024, 0xa4c07b34
0,      57330,      57330,      512,     1024, 0xd6d8f15c
0,      57837,      57837,      512,     1024, 0x1eccddd7
0,      58366,      58366,      512,     1024, 0x2b69f9cb
0,      58874,      58874,      512,     1024, 0x667b775f
0,      59381,      59381,      512,     1024, 0xad3b84e9
0,      59888,      59888,      512,     1024, 0x4f29fc67
0,      60395,      60395,      512,     1024, 0x8d611ab7
0,      60924,      60924,      512,     1024, 0x278966ea
0,      61431,      61431,      512,     1024, 0xaf33812b
0,      61938,      61938,      512,     1024, 0xa55f4265
0,      62446,      62446,      512,     1024, 0x023cb51c
0,      62975,      62975,      512,     1024, 0x1d1f1005
0,      63482,      63482,      512,     1024, 0x874cccf7
0,      63989,      63989,      512,     1024, 0xda705428
0,      64496,      64496,      512,     1024, 0x48d9b440
0,      65003,      65003,      512,     1024, 0xa14e0712
0,      65533,      65533,      512,     1024, 0x7efbad1f
0,      66040,      66040,      512,     1024, 0xdb82c17f
0,      66547,      66547,      512,     1024, 0xcbe87613
0,      67054,      67054,      512,     1024, 0x3a63df1d
0,      67583,      67583,      512,     1024, 0xd5636bba
0,      68090,      68090,      512,     1024, 0x9397af23
0,      68598,      68598,      512,     1024, 0x32a07c98
0,      69105,      69105,      512,     1024, 0x202ca667
0,      69612,      69612,      512,     1024, 0xdf969011
0,      70141,      70141,      512,     1024, 0xc434d238
0,      70648,      70648,      512,     1024, 0xe9ad7562
0,      71155,      71155,      512,     1024, 0xb51b6b50
0,      71663,      71663,      512,     1024, 0xe70aecd3
0,      72192,      72192,      512,     1024, 0x03c816b2
0,      72699,      72699,      512,     1024, 0x869fdf25
0,      73206,      73206,      512,     1024, 0xd40a0a62
0,      73713,      73713,      512,     1024, 0x5af7dd35
0,      74220,      74220,      512,     1024, 0x891ffc72
0,      74750,      74750,      512,     1024, 0x1ff68a08
0,      75257,      75257,      512,     1024, 0x5a7517a9
0,      75764,      75764,      512,     1024, 0x0f959f74
0,      76271,      76271,      512,     1024, 0xe92a12a2
0,      76778,      76778,      512,     1024, 0x38000e55
0,      77307,      77307,      512,     1024, 0x39fbdd70
0,      77814,      77814,      512,     1024, 0xca3d9184
0,      78322,      78322,      512,     1024, 0x66c8995b
0,      78829,      78829,      512,     1024, 0xac25acea
0,      79358,      79358,      512,     1024, 0x3cd1046c
0,      79865,      79865,      512,     1024, 0x6a1df31c
0,      80372,      80372,      512,     1024, 0x21ca10a1
0,      80879,      80879,      512,     1024, 0x1aeccedc
0,      81387,      81387,      512,     1024, 0xddea1335
0,      81916,      81916,      512,     1024, 0x19f5ca9f
0,      82423,      82423,      512,     1024, 0x88e95e43
0,      82930,      82930,      512,     1024, 0x726284fe
0,      83437,      83437,      512,     1024, 0x6b85b40e
0,      83966,      83966,      512,     1024, 0x111fee2a
0,      84474,      84474,      512,     1024, 0x3656b588
0,      84981,      84981,      512,     1024, 0xa5a2b552
0,      85488,      85488,      512,     1024, 0x38fb2467
0,      85995,      85995,      512,     1024, 0xaa919ccc
0,      86524,      86524,      512,     1024, 0x15993dbc
0,      87031,      87031,      512,     1024, 0xbe01a7b9
0,      87539,      87539,      512,     1024, 0xefe93c09
0,      88046,      88046,      512,     1024, 0x1bb566e5
0,      88575,      88575,      512,     1024, 0x15ce6237
0,      89082,      89082,      512,     1024, 0xa8552e66
0,      89589,      89589,      512,     1024, 0x9d80187e
0,      90096,      90096,      512,     1024, 0x5df3fc30
0,      90603,      90603,      512,     1024, 0x1a312aa5
0,      91133,      91133,      512,     1024, 0x6bb8e302
0,      91640,      91640,      512,     1024, 0xbd9684bb
0,      92147,      92147,      512,     1024, 0x78b0b166
0,      92654,      92654,      512,     1024, 0xd9af5eae
0,      93183,      93183,      512,     1024, 0xdb90fe82
0,      93690,      93690,      512,     1024, 0x327614e9
0,      94198,      94198,      512,     1024, 0x1f19b7fe
0,      94705,      94705,      512,     1024, 0x46c53f96
0,      95212,      95212,      512,     1024, 0x921b2189
0,      95741,      95741,      512,     1024, 0xa8fbc85a
0,      96248,      96248,      512,     1024, 0xabfdaaae
0,      96755,      96755,      512,     1024, 0x6acc7387
0,      97263,      97263,      512,     1024, 0x0d9c27b5
0,      97792,      97792,      512,     1024, 0xba4dd809
0,      98299,      98299,      512,     1024, 0x2a2ad521
0,      98806,      98806,      512,     1024, 0x892de38a
0,      99313,      99313,      512,     1024, 0xdc97a2eb
0,      99820,      99820,      512,     1024, 0x4f614ca4
0,     100350,     100350,      512,     1024, 0x9c8a77ea
0,     100857,     100857,      512,     1024, 0x2d30e646
0,     101364,     101364,      512,     1024, 0x74e800a7
0,     101871,     101871,      512,     1024, 0x1e01fb02
0,     102378,     102378,      512,     1024, 0x4ed2c1d8
0,     102907,     102907,      512,     1024, 0xf2fdbe63
0,     103415,     103415,      512,     1024, 0x8d6f63a1
0,     103922,     103922,      512,     1024, 0xded468d9
0,     104429,     104429,      512,     1024, 0xccad839e
0,     104958,     104958,      512,     1024, 0xdde7c082
0,     105465,     105465,      512,     1024, 0x548613c5
0,     105972,     105972,      512,     1024, 0x383909bd
0,     106479,     106479,      512,     1024, 0xfd37627b
0,     106987,     106987,      512,     1024, 0x6d95a481
0,     107516,     107516,      512,     1024, 0x56aa87fa
0,     108023,     108023,      512,     1024, 0x7b67258c
0,     108530,     108530,      512,     1024, 0x7dd99a92
0,     109037,     109037,      512,     1024, 0x4a66d102
0,     109566,     109566,      512,     1024, 0x7b3fce51
0,     110074,     110074,      512,     1024, 0xbbd968aa
0,     110581,     110581,      512,     1024, 0x8283ec36
0,     111088,     111088,      512,     1024, 0x3c96493d
0,     111595,     111595,      512,     1024, 0xfa4f8cf8
0,     112124,     112124,      512,     1024, 0xe2cf872d
0,     112631,     112631,      512,     1024, 0x0a9e7aa6
0,     113139,     113139,      512,     1024, 0x6e7a0550
0,     113646,     113646,      512,     1024, 0x3acfea2f
0,     114175,     114175,      512,     1024, 0x7111d0fa
0,     114682,     114682,      512,     1024, 0xe9a1eca9
0,     115189,     115189,      512,     1024, 0x24da6c46
0,     115696,     115696,      512,     1024, 0x117cff37
0,     116204,     116204,      512,     1024, 0x0f27cab6
0,     116733,     116733,      512,     1024, 0x69b6b4e6
0,     117240,     117240,      512,     1024, 0x1e6cc841
0,     117747,     117747,      512,     1024, 0xb01e2365
0,     118254,     118254,      512,     1024, 0x14e200d3
0,     118783,     118783,      512,     1024, 0xd1184c98
0,     119291,     119291,      512,     1024, 0xef9140e9
0,     119798,     119798,      512,     1024, 0x4cbb645e
0,     120305,     120305,      512,     1024, 0xe7fe2f06
0,     120812,     120812,      512,     1024, 0xf8c45028
0,     121341,     121341,      512,     1024, 0x561358f4
0,     121848,     121848,      512,     1024, 0xd0129b77
0,     122355,     122355,      512,     1024, 0xcc636e88
0,     122863,     122863,      512,     1024, 0xe9406321
0,     123392,     123392,      512,     1024, 0x9f16a041
0,     123899,     123899,      512,     1024, 0x468bf409
0,     124406,     124406,      512,     1024, 0x3df70f7b
0,     124913,     124913,      512,     1024, 0xa880b11b
0,     125420,     125420,      512,     1024, 0x3286c489
0,     125950,     125950,      512,     1024, 0x39fe9ebc
0,     126457,     126457,      512,     1024, 0xc533d83b
0,     126964,     126964,      512,     1024, 0x153b195d
0,     127471,     127471,      512,     1024, 0xd84786a1
0,     127978,     127978,      512,     1024, 0xdc295aaa
0,     128507,     128507,      512,     1024, 0xfb764d8c
0,     129015,     129015,      512,     1024, 0xeebc9db9
0,     129522,     129522,      512,     1024, 0x7ba9403e
0,     130029,     130029,      512,     1024, 0x4e5571ec
0,     130558,     130558,      512,     1024, 0xd965fad4
0,     131065,     131065,      512,     1024, 0x87e259f2
0,     131572,     131572,      512,     1024, 0xae7e533b
0,     132080,     132080,      512,     1024, 0x313cf4d6
0,     132587,     132587,      512,     1024, 0xe1844c90
0,     133116,     133116,      512,     1024, 0xbb057b44
0,     133623,     133623,      512,     1024, 0xa5099687
0,     134130,     134130,      512,     1024, 0xbff10707
0,     134637,     134637,      512,     1024, 0x37c4ffc0
0,     135167,     135167,      512,     1024, 0xf9fb6caa
0,     135674,     135674,      512,     1024, 0x3b6a3a1f
0,     136181,     136181,      512,     1024, 0x83431edb
0,     136688,     136688,      512,     1024, 0x1eb713cf
0,     137195,     137195,      512,     1024, 0xd7b07a6d
0,     137724,     137724,      512,     1024, 0x81ae3391
0,     138231,     138231,      512,     1024, 0xf150130a
0,     138739,     138739,      512,     1024, 0x09678eaa
0,     139246,     139246,      512,     1024, 0xb94e06f1
0,     139775,     139775,      512,     1024, 0x67b1dbc9
0,     140282,     140282,      512,     1024, 0xd6edc235
0,     140789,     140789,      512,     1024, 0x34e4c499
0,     141296,     141296,      512,     1024, 0xeefd89c0
0,     141804,     141804,      512,     1024, 0x38afdaf1
0,     142333,     142333,      512,     1024, 0x29a60d76
0,     142840,     142840,      512,     1024, 0xe28a4372
0,     143347,     143347,      512,     1024, 0x7089454d
0,     143854,     143854,      512,     1024, 0x0c01bb7b
0,     144383,     144383,      512,     1024, 0xbd776a72
0,     144891,     144891,      512,     1024, 0x86776fd0
0,     145398,     145398,      512,     1024, 0xb37c88f7
0,     145905,     145905,      512,     1024, 0x5f90aaf8
0,     146412,     146412,      512,     1024, 0x203d4222
0,     146941,     146941,      512,     1024, 0x382692a6
0,     147448,     147448,      512,     1024, 0xf37c95fd
0,     147956,     147956,      512,     1024, 0x6c0b8877
0,     148463,     148463,      512,     1024, 0x2e54a8b6
0,     148992,     148992,      512,     1024, 0x7f266488
0,     149499,     149499,      512,     1024, 0xfbf20f9a
0,     150006,     150006,      512,     1024, 0xf2985cc0
0,     150513,     150513,      512,     1024, 0xc7075340
0,     151020,     151020,      512,     1024, 0xe4585695
0,     151550,     151550,      512,     1024, 0xbdffa380
0,     152057,     152057,      512,     1024, 0x2422a8a9
0,     152564,     152564,      512,     1024, 0x59cbd75f
0,     153071,     153071,      512,     1024, 0x04ad1a8c
0,     153578,     153578,      512,     1024, 0x33c09191
0,     154107,     154107,      512,     1024, 0x55efa6fd
0,     154615,     154615,      512,     1024, 0xf73d0e5d
0,     155122,     155122,      512,     1024, 0x6141ebae
0,     155629,     155629,      512,     1024, 0x7db17a68
0,     156158,     156158,      512,     1024, 0xa6c690b6
0,     156665,     156665,      512,     1024, 0xa6fd6725
0,     157172,     157172,      512,     1024, 0x50a90b9b
0,     157680,     157680,      512,     1024, 0xef990dc8
0,     158187,     158187,      512,     1024, 0x75adf6b5
0,     158716,     158716,      512,     1024, 0x61eac43e
0,     159223,     159223,      512,     1024, 0x67797a19
0,     159730,     159730,      512,     1024, 0xf325277a
0,     160237,     160237,      512,     1024, 0x18bf254a
0,     160767,     160767,      512,     1024, 0x2ce6bee3
0,     161274,     161274,      512,     1024, 0x8d320860
0,     161781,     161781,      512,     1024, 0xc979b6e8
0,     162288,     162288,      512,     1024, 0xdb644b41
0,     162795,     162795,      512,     1024, 0xe1b368ba
0,     163324,     163324,      512,     1024, 0xacc53d15
0,     163832,     163832,      512,     1024, 0x42ea8c18
0,     164339,     164339,      512,     1024, 0xe52c99a4
0,     164846,     164846,      512,     1024, 0xd7db54a6
0,     165375,     165375,      512,     1024, 0x7f27a7e3
0,     165882,     165882,      512,     1024, 0xf7ffeaa9
0,     166389,     166389,      512,     1024, 0x792b6088
0,     166896,     166896,      512,     1024, 0x61d99724
0,     167404,     167404,      512,     1024, 0x5213720e
0,     167933,     167933,      512,     1024, 0xac09dd30
0,     168440,     168440,      512,     1024, 0x960bf6bb
0,     168947,     168947,      512,     1024, 0xc90168e1
0,     169454,     169454,      512,     1024, 0x43b45768
0,     169983,     169983,      512,     1024, 0x935d60a1
0,     170491,     170491,      512,     1024, 0x9a342ef2
0,     170998,     170998,      512,     1024, 0xc894709f
0,     171505,     171505,      512,     1024, 0x59b43b07
0,     172012,     172012,      512,     1024, 0x36a1a98d
0,     172541,     172541,      512,     1024, 0x9e1a121c
0,     173048,     173048,      512,     1024, 0x02208b78
0,     173556,     173556,      512,     1024, 0xd1d7b274
0,     174063,     174063,      512,     1024, 0xdacd5096
0,     174592,     174592,      512,     1024, 0x51b71ead
0,     175099,     175099,      512,     1024, 0xd009a7ca
0,     175606,     175606,      512,     1024, 0xb6d5a938
0,     176113,     176113,      512,     1024, 0xf3d45e47
0,     176621,     176621,      512,     1024, 0xea8e04fc
0,     177150,     177150,      512,     1024, 0x0b928bd8
0,     177657,     177657,      512,     1024, 0x0f02caec
0,     178164,     178164,      512,     1024, 0xe2b137a8
0,     178671,     178671,      512,     1024, 0xd5f94892
